<?xml version="1.0" encoding="UTF-8"?>
<svg id="Calque_2" data-name="Calque 2" xmlns="http://www.w3.org/2000/svg" viewBox="-50 -50 1555.01 2315.29">
  <defs>
    <style>
      .cls-1 {
        fill: #6C63FF;
        stroke-width: 0px;
      }
    </style>
  </defs>
  <g id="Calque_1-2" data-name="Calque 1">
    <path class="cls-1" filter="drop-shadow(15px 15px 20px rgba(0, 0, 0, 0.3))" d="M1455.01,727.51s0,1.19-.07,3.5c-.28,8.19-1.26,30.74-4.83,65.33,0,.28-.07.56-.07.84-64.15-38.93-190.75-104.62-360.29-138.86-8.68-1.75-17.43-3.36-26.26-4.9-33.89-154.41-171.49-269.88-335.99-269.88-190.05,0-344.11,154.06-344.11,344.11v1.61c0,.49,0,.98.07,1.4.14,2.1.28,5.32.56,9.59.77,11.83,2.52,31.72,6.65,58.05v.07c1.19,7.56,2.52,15.62,4.13,24.16l1.19,6.44c.42,2.24.84,4.48,1.33,6.79.42,2.24.91,4.55,1.4,6.86.49,2.31.98,4.69,1.47,7.07.56,2.31,1.05,4.76,1.61,7.21.14.98.42,1.96.63,2.94.84,3.92,1.82,7.91,2.8,11.97,1.26,5.11,2.52,10.29,3.85,15.62,23.18,90.26,67.15,210.43,150.56,338.02,40.47,62.04,90.33,125.77,151.61,188.79l.77.84,4.9,4.9,10.57,10.71,10.5-10.71,5.67-5.74c67.23-69.05,120.59-139.07,163.09-206.65,20.73-32.91,38.79-65.19,54.55-96.57-38.79-8.12-75.35-13.52-109.52-16.67-106.3-9.94-189.14.91-241.73,12.46-66.24-117.5-96.84-223.73-110.92-297.54,172.05-64.42,330.39-76.54,465.96-63.44,36.41,3.57,71.14,8.89,104.06,15.48,224.58,45.31,364.63,150.84,364.63,150.84l-.07.35c-16.1,91.45-44.33,212.11-93.97,351.04l-.07.35c-11.48,32.28-24.16,65.47-38.09,99.58-40.13,98.25-90.68,203.43-154.55,312.32-4.13,7-8.26,14.01-12.54,21.08-93.21,155.6-213.58,318.27-368.97,478.63l-.07.07-37.95,39.7-36.06-37.74-1.96-2.03C194.46,1664.74,54.76,1130.02,15.4,877.08v-.14C3.64,801.45.84,751.03.14,733.95c-.07-.98-.07-1.96-.07-2.94-.07-1.19-.07-2.31-.07-3.5C0,325.69,325.69,0,727.5,0c209.03,0,397.47,88.16,530.17,229.41h.07c122.33,130.18,197.26,305.39,197.26,498.1Z"/>
  </g>
</svg>