<?xml version="1.0" encoding="UTF-8"?>
<svg id="Calque_2" data-name="Calque 2" xmlns="http://www.w3.org/2000/svg" viewBox="0 0 3303.83 2220.14">
  <defs>
    <style>
      .cls-1 {
        fill: #fff;
        stroke-width: 0px;
      }
    </style>
  </defs>
  <g id="Calque_1-2" data-name="Calque 1">
    <g>
      <g>
        <path class="cls-1" d="M1793.64,1461.34h-17.79c-61.13,0-122.27,2.87-183.33,6.16-60.92,3.29-105.25-7.63-105.25-83.05v-72.48s.14-.35.35-1.05l.7-1.96c21.99-62.53,41.32-125.14,57.7-187.53,6.93-23.04,14.01-46.57,20.87-69.75,14.22-48.04,27.59-94.26,37.18-130.18,6.72-25.14,11.62-45.17,13.72-57.28,24.86,10.01,40.2,32.07,40.2,76.33v350.06h212.53c9.45,91.94,23.67,170.72-76.89,170.72Z"/>
        <path class="cls-1" d="M2304.91,1291.52c-8.54,44.54-42.65,70.24-91.95,70.24-62.6,0-100.56-36.06-110.08-100.56,245.72-1.89,280.81-61.76,280.81-122.41,0-70.24-56.02-161.27-206.79-161.27s-252.38,91.03-252.38,246.63,107.21,246.63,252.38,246.63c127.1,0,203.01-82.49,203.01-137.6,0-34.1-24.65-41.67-75-41.67ZM2163.59,1067.65c35.08,0,50.28,31.3,50.28,56.93,0,27.52-17.09,49.3-110.99,51.19,8.54-63.51,32.28-108.12,60.71-108.12Z"/>
        <path class="cls-1" d="M1458.01,1864.41h-113.86v-80.6h131.93c18.98,0,28.43,17.02,28.43,35.08,0,21.78-14.22,45.52-46.5,45.52ZM1439.1,1613.08h-80.67c-24.65,48.81-50.84,96.92-78.5,144.04-4.62,7.84-9.03,15.34-13.58,22.83-29.2,48.81-60.22,96.92-92.93,144.25v209.59c0,100.56,78.78,86.34,170.72,76.82v-175.49h113.86c99.65,0,225.77-60.71,225.77-230.46,0-147.06-102.45-191.59-244.67-191.59Z"/>
        <path class="cls-1" d="M1941.75,1726.81c-131.86,0-239.07,91.17-239.07,246.7s107.21,246.63,239.07,246.63,239.07-91.03,239.07-246.63-107.21-246.7-239.07-246.7ZM1941.75,2130.09c-35.08,0-63.58-69.26-63.58-156.58s28.5-156.51,63.58-156.51,63.65,69.26,63.65,156.51-28.57,156.58-63.65,156.58Z"/>
        <path class="cls-1" d="M2223.47,1736.33v397.47c0,100.56,78.71,86.34,170.79,76.82v-397.4c0-100.56-78.78-86.41-170.79-76.89ZM2309.81,1521.91c-50.28,0-91.03,40.83-91.03,91.17s40.76,91.03,91.03,91.03,91.03-40.83,91.03-91.03-40.76-91.17-91.03-91.17Z"/>
        <path class="cls-1" d="M2830.59,1728.77c-79.76,0-152.8,78.71-206.79,202.03v-117.57c0-100.56-78.78-86.41-170.8-76.89v397.47c0,100.56,78.71,86.34,170.8,76.82,65.4-252.24,101.47-329.12,115.68-329.12,5.67,0,7.56,7.63,7.56,19.89v232.42c0,100.56,78.78,86.34,170.79,76.82v-314c0-105.32-16.17-167.85-87.25-167.85Z"/>
        <path class="cls-1" d="M3178.63,1972.53v-150.77h92.99v-85.43h-92.99v-46.5c0-100.56-78.71-86.27-170.73-76.75v123.25h-47.48v85.43h47.48v153.64c.98,104.34,52.1,241.87,208.68,241.87,72.13,0,87.25-64.49,87.25-172.62-125.21,0-125.21-23.67-125.21-72.13Z"/>
      </g>
      <path class="cls-1" d="M1455.01,730.88s0,1.19-.07,3.5c-.28,8.19-1.26,30.74-4.83,65.33,0,.28-.07.56-.07.84-64.15-38.93-190.75-104.62-360.29-138.86-8.68-1.75-17.43-3.36-26.26-4.9-33.89-154.41-171.49-269.88-335.99-269.88-190.05,0-344.11,154.06-344.11,344.11v1.61c0,.49,0,.98.07,1.4.14,2.1.28,5.32.56,9.59.77,11.83,2.52,31.72,6.65,58.05v.07c1.19,7.56,2.52,15.62,4.13,24.16l1.19,6.44c.42,2.24.84,4.48,1.33,6.79.42,2.24.91,4.55,1.4,6.86.49,2.31.98,4.69,1.47,7.07.56,2.31,1.05,4.76,1.61,7.21.14.98.42,1.96.63,2.94.84,3.92,1.82,7.91,2.8,11.97,1.26,5.11,2.52,10.29,3.85,15.62,23.18,90.26,67.15,210.43,150.56,338.02,40.47,62.04,90.33,125.77,151.61,188.79l.77.84,4.9,4.9,10.57,10.71,10.5-10.71,5.67-5.74c67.23-69.05,120.59-139.07,163.09-206.65,20.73-32.91,38.79-65.19,54.55-96.57-38.79-8.12-75.35-13.52-109.52-16.67-106.3-9.94-189.14.91-241.73,12.46-66.24-117.5-96.84-223.73-110.92-297.54,172.05-64.42,330.39-76.54,465.96-63.44,36.41,3.57,71.14,8.89,104.06,15.48,224.58,45.31,364.63,150.84,364.63,150.84l-.07.35c-16.1,91.45-44.33,212.11-93.97,351.04l-.07.35c-11.48,32.28-24.16,65.47-38.09,99.58-40.13,98.25-90.68,203.43-154.55,312.32-4.13,7-8.26,14.01-12.54,21.08-93.21,155.6-213.58,318.27-368.97,478.63l-.07.07-37.95,39.7-36.06-37.74-1.96-2.03C194.46,1668.11,54.76,1133.39,15.4,880.45v-.14C3.64,804.83.84,754.41.14,737.32c-.07-.98-.07-1.96-.07-2.94-.07-1.19-.07-2.31-.07-3.5C0,329.07,325.69,3.37,727.5,3.37c209.03,0,397.47,88.16,530.17,229.41h.07c122.33,130.18,197.26,305.39,197.26,498.1Z"/>
      <path class="cls-1" d="M1619.07,738.24C1603.87,219.07,1232.73,7.31,1221.11.79c-.21-.07-.28-.14-.28-.14,613.85-21.99,479.26,516.02,398.24,737.59Z"/>
    </g>
  </g>
</svg>