<?xml version="1.0" standalone="no"?>
<!DOCTYPE svg PUBLIC "-//W3C//DTD SVG 20010904//EN"
 "http://www.w3.org/TR/2001/REC-SVG-20010904/DTD/svg10.dtd">
<svg version="1.0" xmlns="http://www.w3.org/2000/svg"
 width="2215.000000pt" height="2215.000000pt" viewBox="0 0 2215.000000 2215.000000"
 preserveAspectRatio="xMidYMid meet">
<metadata>
Created by potrace 1.14, written by Peter Selinger 2001-2017
</metadata>
<g transform="translate(0.000000,2215.000000) scale(0.100000,-0.100000)"
fill="#000000" stroke="none">
<path d="M10748 22145 c-2 -1 -57 -6 -123 -10 -66 -4 -131 -8 -145 -10 -14 -1
-65 -6 -113 -10 -48 -3 -98 -8 -110 -11 -12 -2 -46 -6 -77 -9 -31 -3 -65 -7
-76 -9 -12 -2 -45 -7 -75 -11 -30 -3 -61 -8 -69 -10 -8 -2 -35 -7 -60 -10 -25
-3 -56 -8 -70 -10 -14 -3 -36 -7 -50 -10 -14 -3 -36 -7 -50 -10 -14 -2 -39 -7
-57 -10 -65 -10 -313 -69 -458 -107 -82 -22 -154 -41 -160 -42 -41 -10 -337
-106 -463 -151 -360 -128 -906 -384 -1182 -555 -8 -5 -46 -28 -85 -51 -265
-156 -787 -529 -926 -661 -8 -7 -30 -26 -49 -42 -184 -151 -519 -479 -721
-706 -62 -71 -272 -325 -310 -376 -23 -33 -45 -61 -49 -64 -3 -3 -17 -21 -30
-40 -27 -39 -30 -43 -63 -85 -28 -34 -237 -345 -283 -420 -196 -318 -372 -655
-512 -985 -84 -198 -163 -407 -227 -605 -39 -121 -130 -433 -140 -483 -2 -9
-17 -75 -33 -147 -44 -189 -100 -495 -116 -637 -12 -102 -18 -144 -21 -166 -2
-12 -7 -62 -10 -110 -4 -48 -8 -98 -10 -110 -25 -152 -25 -868 0 -1023 2 -13
6 -60 10 -104 3 -44 8 -96 10 -115 2 -19 6 -62 10 -95 5 -57 12 -115 20 -180
2 -16 11 -86 20 -155 24 -190 26 -204 30 -220 2 -8 7 -37 10 -65 5 -48 9 -76
20 -140 15 -86 17 -102 20 -120 1 -11 8 -51 15 -90 6 -38 14 -83 17 -100 3
-25 28 -165 38 -215 11 -56 38 -199 41 -220 26 -145 145 -674 220 -980 104
-425 261 -976 421 -1470 94 -294 282 -836 322 -931 6 -13 30 -78 55 -144 48
-130 145 -382 175 -455 48 -117 66 -158 141 -340 45 -107 88 -208 95 -225 8
-16 59 -131 113 -255 191 -431 462 -992 680 -1405 119 -226 185 -348 214 -398
15 -26 28 -49 28 -51 0 -2 25 -47 55 -101 30 -53 55 -98 55 -101 0 -2 16 -28
35 -58 19 -30 35 -57 35 -60 0 -3 46 -83 101 -178 56 -95 109 -186 119 -203
83 -145 391 -641 518 -835 186 -284 470 -705 495 -735 4 -5 47 -66 95 -135
107 -152 127 -181 172 -241 19 -26 51 -70 70 -98 19 -27 38 -50 43 -51 4 0 7
-6 7 -14 0 -8 3 -16 8 -18 4 -1 88 -111 187 -243 99 -132 188 -249 197 -260 9
-11 55 -69 103 -130 47 -60 91 -117 98 -125 7 -8 28 -35 47 -60 19 -25 37 -47
41 -50 3 -3 32 -39 65 -80 32 -41 69 -86 81 -100 11 -14 71 -86 133 -160 117
-141 188 -226 205 -244 6 -6 33 -38 60 -71 28 -33 53 -62 56 -65 3 -3 39 -43
79 -90 40 -47 93 -108 119 -136 25 -28 59 -66 75 -85 30 -34 186 -207 257
-284 20 -22 51 -56 69 -75 27 -30 114 -122 288 -307 22 -24 121 -127 220 -230
99 -104 215 -225 259 -271 l78 -83 112 118 c62 65 153 161 204 213 97 101 335
351 391 411 18 19 78 84 133 144 55 59 111 120 125 135 28 30 150 166 178 197
9 11 43 49 74 84 69 78 87 99 146 168 26 30 54 61 62 70 15 16 157 182 196
230 10 13 24 28 30 35 19 20 118 139 209 251 50 60 97 119 107 130 28 34 200
249 268 336 222 281 586 770 752 1006 23 34 74 106 112 160 231 326 661 984
887 1358 30 50 59 97 64 106 6 9 20 34 33 55 12 22 37 62 54 89 31 51 243 419
293 510 16 28 58 104 95 170 79 143 149 273 242 450 72 136 400 795 461 925
64 135 158 343 214 470 30 69 65 148 78 175 41 87 234 553 311 750 41 105 82
204 89 222 8 17 15 36 15 42 0 6 4 19 10 29 14 24 127 335 222 607 197 565
309 927 498 1605 62 222 209 824 244 1000 3 14 16 79 30 145 15 66 28 131 31
145 3 14 7 34 9 45 19 95 67 348 71 380 3 22 8 46 10 52 2 7 -37 41 -88 77
-86 60 -364 234 -397 249 -8 4 -28 16 -45 26 -72 47 -324 182 -524 281 -546
273 -1153 510 -1741 679 -183 52 -358 99 -400 107 -14 2 -31 7 -38 9 -7 3 -71
18 -142 35 -135 31 -142 32 -230 49 -30 6 -66 14 -80 16 -14 3 -61 12 -105 20
-44 8 -91 17 -105 20 -23 5 -72 13 -185 31 -59 9 -69 11 -200 28 -66 9 -136
18 -155 21 -48 7 -94 12 -170 19 -36 4 -85 9 -110 12 -62 6 -163 14 -235 19
-251 16 -355 19 -695 20 -377 0 -570 -7 -835 -29 -187 -15 -229 -20 -315 -31
-19 -3 -57 -7 -85 -10 -27 -3 -63 -7 -80 -10 -16 -2 -50 -7 -75 -10 -25 -3
-54 -7 -65 -9 -11 -2 -42 -7 -70 -10 -56 -8 -63 -9 -195 -31 -217 -36 -642
-125 -765 -160 -27 -8 -61 -17 -75 -19 -14 -3 -99 -26 -190 -51 -91 -25 -169
-47 -175 -49 -108 -29 -483 -152 -652 -213 -110 -40 -121 -47 -117 -66 2 -12
7 -35 10 -52 12 -70 99 -445 115 -500 5 -16 30 -104 55 -195 40 -147 158 -513
227 -705 27 -74 167 -423 197 -490 10 -22 31 -72 48 -110 133 -305 444 -911
462 -900 4 3 25 7 45 11 21 3 47 8 59 10 95 19 187 36 216 40 19 3 60 9 90 14
69 11 111 17 175 25 28 3 83 10 123 16 41 5 117 12 170 15 54 3 108 7 122 10
54 9 337 18 575 18 317 0 652 -15 860 -39 22 -3 65 -7 95 -10 30 -2 71 -6 90
-9 19 -3 53 -8 75 -10 103 -12 219 -27 224 -30 3 -2 30 -7 60 -10 30 -4 64 -9
75 -11 12 -2 37 -7 56 -10 19 -2 49 -7 65 -10 42 -8 176 -34 200 -39 55 -11
111 -20 118 -18 13 3 8 -9 -39 -102 -229 -450 -567 -1005 -883 -1446 -172
-241 -487 -649 -590 -765 -20 -23 -47 -55 -61 -72 -53 -65 -244 -282 -352
-398 -125 -135 -380 -399 -396 -409 -15 -9 -255 234 -512 520 -58 64 -302 346
-341 394 -103 126 -143 175 -148 180 -16 14 -332 435 -417 555 -89 125 -260
379 -344 510 -79 124 -250 405 -250 411 0 2 -10 21 -23 42 -13 20 -41 69 -62
107 -21 39 -51 93 -66 120 -175 321 -342 663 -474 970 -67 157 -180 436 -200
495 -1 3 -5 12 -8 20 -23 53 -149 420 -200 585 -49 155 -127 431 -162 575 -38
155 -92 396 -110 495 -14 70 -74 434 -80 480 -3 28 -8 61 -10 75 -2 14 -6 54
-10 90 -4 36 -8 79 -10 95 -24 196 -24 528 0 676 2 13 6 49 10 79 7 65 39 246
55 310 36 150 52 207 90 320 42 126 70 201 101 270 12 25 28 61 36 80 33 75
111 224 154 295 10 17 26 44 35 60 44 78 240 355 274 385 3 3 23 28 45 55 41
52 277 291 355 360 25 22 81 69 125 103 44 35 87 69 95 75 18 15 184 127 208
142 9 6 45 27 78 48 34 20 66 37 72 37 6 0 12 4 14 8 3 9 202 110 293 149 135
58 311 124 371 138 10 3 60 16 109 30 103 29 97 27 230 54 93 18 124 23 215
36 19 2 51 7 70 9 131 18 452 25 625 13 116 -9 294 -30 349 -42 12 -3 35 -7
51 -10 63 -10 224 -48 305 -72 497 -146 885 -356 1307 -706 85 -70 335 -331
424 -442 316 -394 547 -857 659 -1315 13 -52 28 -98 33 -102 6 -3 31 -10 56
-14 25 -4 51 -8 56 -9 6 -2 62 -12 125 -25 63 -12 183 -37 265 -56 83 -19 177
-41 210 -49 33 -7 112 -27 175 -44 63 -18 142 -39 175 -47 355 -92 1066 -341
1420 -496 39 -17 88 -38 110 -48 210 -90 682 -320 870 -424 44 -25 102 -56
128 -71 27 -14 96 -54 155 -89 59 -35 108 -63 110 -61 3 3 5 17 17 150 12 133
14 150 22 260 14 202 8 670 -11 880 -2 22 -7 72 -10 110 -6 67 -10 102 -21
183 -3 20 -7 57 -10 82 -3 25 -8 57 -10 73 -6 31 -11 64 -20 127 -12 84 -16
105 -46 255 -59 292 -133 573 -223 845 -58 177 -94 280 -106 305 -5 11 -19 45
-30 75 -11 30 -26 66 -32 80 -6 14 -14 34 -19 45 -105 258 -326 704 -439 885
-5 8 -23 40 -41 70 -180 312 -529 788 -803 1094 -262 293 -598 613 -866 826
-24 19 -58 47 -75 61 -41 35 -285 215 -365 270 -36 24 -66 47 -68 52 -2 4 -8
7 -13 7 -4 0 -48 26 -96 59 -546 363 -1278 699 -1933 886 -102 29 -471 120
-520 129 -32 6 -48 9 -98 20 -33 7 -376 65 -417 70 -22 3 -65 8 -95 11 -30 3
-71 8 -90 11 -20 2 -60 6 -90 9 -30 3 -84 8 -120 11 -36 3 -87 8 -115 10 -59
5 -802 13 -807 9z"/>
</g>
</svg>
